# xmcd CD database file
#
# Track frame offsets:
#	150
#	25662
#	59789
#	88201
#	109495
#	140218
#	153855
#	174469
#	187615
#	199289
#
# Disc length: 2874 seconds
#
# Revision: 0
# Processed by: cddbd v1.5.2PL0 Copyright (c) Steve Scherf et al.
# Submitted via: CDex 1.70beta2
#
DISCID=8d0b380a
DTITLE=Variuos - Hard bop - brzmienie pewnej epoki
DYEAR=2009
DGENRE=Jazz
TTITLE0=Jimmy Raney - Signal
TTITLE1=Dig - Sonny Rolins
TTITLE2=Gypsy - Art Blakey
TTITLE3=Weirdo - Horace Silver
TTITLE4=Joy Spring - Clifford Brown
TTITLE5=Just One Of Those Things - Tal Farlow
TTITLE6=The Red Door - Zoot Sims
TTITLE7=Sid's Delight - Dexter Gordon
TTITLE8=Stitt's It - Sonny Stitt
TTITLE9=I Let A Song Get Out Of My Heart - Barney Kessel
EXTD=YEAR: 2009
EXTT0=
EXTT1=
EXTT2=
EXTT3=
EXTT4=
EXTT5=
EXTT6=
EXTT7=
EXTT8=
EXTT9=
PLAYORDER=
